# xmcd CD database file
#
# Track frame offsets:
#	150
#	19670
#	36755
#
# Disc length: 680 seconds
#
# Revision: 1
# Processed by: cddbd v1.5PL3 Copyright (c) Steve Scherf et al.
# Submitted via: CDex 1.40Beta9
#
DISCID=1902a603
DTITLE=175R - 空へ唄えば
DYEAR=2003
DGENRE=Rock
TTITLE0=空へ唄えば
TTITLE1=snow
TTITLE2=Freedom - 和気愛愛version -
EXTD=YEAR: 2003 ID3G: 17
EXTT0=
EXTT1=
EXTT2=
PLAYORDER=
